<svg id="shopping_cart-24px" xmlns="http://www.w3.org/2000/svg" width="30" height="30" viewBox="0 0 30 30">
  <metadata><?xpacket begin="﻿" id="W5M0MpCehiHzreSzNTczkc9d"?>
<x:xmpmeta xmlns:x="adobe:ns:meta/" x:xmptk="Adobe XMP Core 5.6-c142 79.160924, 2017/07/13-01:06:39        ">
   <rdf:RDF xmlns:rdf="http://www.w3.org/1999/02/22-rdf-syntax-ns#">
      <rdf:Description rdf:about=""/>
   </rdf:RDF>
</x:xmpmeta>
                                                                                                    
                                                                                                    
                                                                                                    
                                                                                                    
                                                                                                    
                                                                                                    
                                                                                                    
                                                                                                    
                                                                                                    
                                                                                                    
                                                                                                    
                                                                                                    
                                                                                                    
                                                                                                    
                                                                                                    
                                                                                                    
                                                                                                    
                                                                                                    
                                                                                                    
                                                                                                    
                           
<?xpacket end="w"?></metadata>
<defs>
    <style>
      .cls-1 {
        fill: none;
      }

      .cls-2 {
        fill: #f8f8f8;
        fill-rule: evenodd;
      }
    </style>
  </defs>
  <rect id="Path_1" data-name="Path 1" class="cls-1" width="30" height="30"/>
  <path id="Path_2" data-name="Path 2" class="cls-2" d="M1238.19,39.5a2.479,2.479,0,0,0,2.18-1.287l4.48-8.113a1.247,1.247,0,0,0-1.09-1.85h-18.5l-1.17-2.5H1220v2.5h2.5l4.5,9.488-1.69,3.05a2.506,2.506,0,0,0,2.19,3.712h15V42h-15l1.37-2.5h9.32Zm-11.74-8.75h15.19L1238.19,37h-8.78Zm1.05,15a2.5,2.5,0,1,0,2.5,2.5A2.5,2.5,0,0,0,1227.5,45.75Zm12.5,0a2.5,2.5,0,1,0,2.5,2.5A2.5,2.5,0,0,0,1240,45.75Z" transform="translate(-1218.75 -23.25)"/>
</svg>
